<?xml version="1.0" encoding="UTF-8" standalone="no"?>
<!DOCTYPE svg PUBLIC "-//W3C//DTD SVG 1.1//EN" "http://www.w3.org/Graphics/SVG/1.1/DTD/svg11.dtd">
<svg width="100%" height="100%" viewBox="0 0 300 300" version="1.1" xmlns="http://www.w3.org/2000/svg" xmlns:xlink="http://www.w3.org/1999/xlink" xml:space="preserve" xmlns:serif="http://www.serif.com/" style="fill-rule:evenodd;clip-rule:evenodd;stroke-linejoin:round;stroke-miterlimit:2;">
    <g id="Page-1" serif:id="Page 1" transform="matrix(0.428571,0,0,0.428571,0,0)">
        <rect x="0" y="0" width="700" height="700" style="fill:none;"/>
        <clipPath id="_clip1">
            <rect x="0" y="0" width="700" height="700"/>
        </clipPath>
        <g clip-path="url(#_clip1)">
            <g id="Logo" transform="matrix(1.401333,0,0,1.401333,-140.466558,-140.466635)">
                <g transform="matrix(1,0,0,1,600,348.169)">
                    <path d="M0,1.831C0,-136.24 -111.929,-248.169 -250,-248.169C-388.071,-248.169 -500,-136.24 -500,1.831C-500,119.076 -419.285,217.453 -310.394,244.469L-310.394,78.227L-361.946,78.227L-361.946,1.831L-310.394,1.831L-310.394,-31.088C-310.394,-116.18 -271.886,-155.62 -188.346,-155.62C-172.508,-155.62 -145.179,-152.515 -133.999,-149.409L-133.999,-80.155C-139.9,-80.776 -150.148,-81.087 -162.881,-81.087C-203.874,-81.087 -219.713,-65.559 -219.713,-25.187L-219.713,1.831L-138.054,1.831L-152.082,78.227L-219.713,78.227L-219.713,250C-95.927,235.049 0,129.649 0,1.831" style="fill:rgb(8,102,255);fill-rule:nonzero;"/>
                </g>
                <g transform="matrix(1,0,0,1,447.9175,366.1524)">
                    <path d="M0,60.244L14.029,-16.152L-67.63,-16.152L-67.63,-43.171C-67.63,-83.543 -51.792,-99.07 -10.799,-99.07C1.934,-99.07 12.182,-98.76 18.083,-98.139L18.083,-167.392C6.903,-170.498 -20.426,-173.604 -36.264,-173.604C-119.803,-173.604 -158.312,-134.163 -158.312,-49.071L-158.312,-16.152L-209.864,-16.152L-209.864,60.244L-158.312,60.244L-158.312,226.486C-138.969,231.284 -118.744,233.848 -97.918,233.848C-87.664,233.848 -77.56,233.216 -67.63,232.017L-67.63,60.244L0,60.244Z" style="fill:white;fill-rule:nonzero;"/>
                </g>
            </g>
        </g>
    </g>
</svg>
